<svg width="18" height="19" viewBox="0 0 18 19" fill="none" xmlns="http://www.w3.org/2000/svg">
<g clip-path="url(#clip0_5_262)">
<path d="M10.1531 9.50001C10.1531 12.2956 7.88063 14.5625 5.076 14.5625C4.4103 14.5634 3.75094 14.4332 3.13557 14.1792C2.5202 13.9253 1.96087 13.5526 1.48952 13.0825C1.01817 12.6124 0.644028 12.0541 0.388456 11.4394C0.132883 10.8247 0.000885833 10.1657 0 9.50001C0 6.70326 2.2725 4.43751 5.076 4.43751C5.7418 4.43647 6.40128 4.5666 7.01678 4.82047C7.63228 5.07434 8.19174 5.44697 8.66321 5.91708C9.13468 6.38719 9.50892 6.94558 9.76456 7.56034C10.0202 8.17511 10.1522 8.83421 10.1531 9.50001V9.50001ZM15.7219 9.50001C15.7219 12.1325 14.5856 14.2655 13.1839 14.2655C11.7821 14.2655 10.6459 12.1314 10.6459 9.50001C10.6459 6.86751 11.7821 4.73451 13.1839 4.73451C14.5856 4.73451 15.7219 6.86863 15.7219 9.50001ZM18 9.50001C18 11.858 17.6006 13.7694 17.1068 13.7694C16.614 13.7694 16.2146 11.8569 16.2146 9.50001C16.2146 7.14201 16.614 5.23063 17.1079 5.23063C17.6006 5.23063 18 7.14201 18 9.50001Z" fill="#1D1D1D"/>
</g>
<defs>
<clipPath id="clip0_5_262">
<rect width="18" height="18" fill="white" transform="translate(0 0.5)"/>
</clipPath>
</defs>
</svg>
